<svg width="24" height="24" viewBox="0 0 24 24" fill="none" xmlns="http://www.w3.org/2000/svg">
<rect width="24" height="24" rx="12" fill="#6943FF"/>
<path d="M2.84 17V8.6H6.68C7.448 8.6 8.108 8.724 8.66 8.972C9.22 9.22 9.652 9.58 9.956 10.052C10.26 10.516 10.412 11.068 10.412 11.708C10.412 12.34 10.26 12.888 9.956 13.352C9.652 13.808 9.22 14.16 8.66 14.408C8.108 14.648 7.448 14.768 6.68 14.768H4.16L5.216 13.772V17H2.84ZM8.036 17L5.948 13.94H8.48L10.58 17H8.036ZM5.216 14.024L4.16 12.932H6.536C7.032 12.932 7.4 12.824 7.64 12.608C7.888 12.392 8.012 12.092 8.012 11.708C8.012 11.316 7.888 11.012 7.64 10.796C7.4 10.58 7.032 10.472 6.536 10.472H4.16L5.216 9.38V14.024ZM11.7228 17V8.6H13.6788L17.1588 14.312H16.1268L19.5108 8.6H21.4668L21.4908 17H19.3068L19.2828 11.924H19.6548L17.1228 16.172H16.0668L13.4628 11.924H13.9188V17H11.7228Z" fill="white"/>
</svg>
