<svg width="25" height="25" viewBox="0 0 25 25" fill="none" xmlns="http://www.w3.org/2000/svg">
<path d="M1.5625 1.5625V23.4375H23.4375V1.5625H1.5625ZM13.4668 18.623C13.4668 20.752 12.2168 21.7236 10.3955 21.7236C8.75 21.7236 7.79785 20.874 7.30957 19.8437L8.98438 18.833C9.30664 19.4043 9.59961 19.8877 10.3076 19.8877C10.9814 19.8877 11.4111 19.624 11.4111 18.5937V11.6064H13.4668V18.623ZM18.3301 21.7236C16.4209 21.7236 15.1855 20.8154 14.585 19.624L16.2598 18.6572C16.6992 19.375 17.2754 19.9072 18.2861 19.9072C19.1357 19.9072 19.6826 19.4824 19.6826 18.8916C19.6826 18.1885 19.126 17.9395 18.1836 17.5244L17.6709 17.3047C16.1865 16.6748 15.2051 15.8789 15.2051 14.2041C15.2051 12.6611 16.3818 11.4893 18.2129 11.4893C19.5215 11.4893 20.459 11.9434 21.1328 13.1348L19.5312 14.1602C19.1797 13.5303 18.7988 13.2812 18.208 13.2812C17.6074 13.2812 17.2266 13.6621 17.2266 14.1602C17.2266 14.7754 17.6074 15.0244 18.4912 15.4102L19.0039 15.6299C20.752 16.377 21.7334 17.1436 21.7334 18.8623C21.7334 20.708 20.2783 21.7236 18.3301 21.7236Z" fill="white"/>
</svg>
