<svg width="170" height="19" viewBox="0 0 170 19" fill="none" xmlns="http://www.w3.org/2000/svg">
<path d="M0.68 18V1.2H8.36C9.896 1.2 11.216 1.448 12.32 1.944C13.44 2.44 14.304 3.16 14.912 4.104C15.52 5.032 15.824 6.136 15.824 7.416C15.824 8.68 15.52 9.776 14.912 10.704C14.304 11.616 13.44 12.32 12.32 12.816C11.216 13.296 9.896 13.536 8.36 13.536H3.32L5.432 11.544V18H0.68ZM11.072 18L6.896 11.88H11.96L16.16 18H11.072ZM5.432 12.048L3.32 9.864H8.072C9.064 9.864 9.8 9.648 10.28 9.216C10.776 8.784 11.024 8.184 11.024 7.416C11.024 6.632 10.776 6.024 10.28 5.592C9.8 5.16 9.064 4.944 8.072 4.944H3.32L5.432 2.76V12.048ZM26.1976 18.336C23.7176 18.336 21.7816 17.656 20.3896 16.296C18.9976 14.936 18.3016 13.008 18.3016 10.512V1.2H23.0536V10.368C23.0536 11.808 23.3336 12.84 23.8936 13.464C24.4696 14.088 25.2536 14.4 26.2456 14.4C27.2376 14.4 28.0136 14.088 28.5736 13.464C29.1336 12.84 29.4136 11.808 29.4136 10.368V1.2H34.0936V10.512C34.0936 13.008 33.3976 14.936 32.0056 16.296C30.6136 17.656 28.6776 18.336 26.1976 18.336ZM40.631 18V4.968H35.471V1.2H50.519V4.968H45.383V18H40.631ZM63.5214 1.2H68.2734V18H63.5214V1.2ZM57.0414 18H52.2894V1.2H57.0414V18ZM63.8574 11.448H56.7054V7.512H63.8574V11.448ZM78.6097 18V1.2H82.5217L89.4817 12.624H87.4177L94.1857 1.2H98.0977L98.1457 18H93.7777L93.7297 7.848H94.4737L89.4097 16.344H87.2977L82.0897 7.848H83.0017V18H78.6097ZM109.98 18.336C108.636 18.336 107.396 18.12 106.26 17.688C105.124 17.256 104.132 16.648 103.284 15.864C102.452 15.064 101.804 14.136 101.34 13.08C100.876 12.024 100.644 10.864 100.644 9.6C100.644 8.336 100.876 7.176 101.34 6.12C101.804 5.064 102.452 4.144 103.284 3.36C104.132 2.56 105.124 1.944 106.26 1.512C107.396 1.08 108.636 0.863999 109.98 0.863999C111.34 0.863999 112.58 1.08 113.7 1.512C114.836 1.944 115.82 2.56 116.652 3.36C117.484 4.144 118.132 5.064 118.596 6.12C119.076 7.176 119.316 8.336 119.316 9.6C119.316 10.864 119.076 12.032 118.596 13.104C118.132 14.16 117.484 15.08 116.652 15.864C115.82 16.648 114.836 17.256 113.7 17.688C112.58 18.12 111.34 18.336 109.98 18.336ZM109.98 14.4C110.62 14.4 111.212 14.288 111.756 14.064C112.316 13.84 112.796 13.52 113.196 13.104C113.612 12.672 113.932 12.16 114.156 11.568C114.396 10.976 114.516 10.32 114.516 9.6C114.516 8.864 114.396 8.208 114.156 7.632C113.932 7.04 113.612 6.536 113.196 6.12C112.796 5.688 112.316 5.36 111.756 5.136C111.212 4.912 110.62 4.8 109.98 4.8C109.34 4.8 108.74 4.912 108.18 5.136C107.636 5.36 107.156 5.688 106.74 6.12C106.34 6.536 106.02 7.04 105.78 7.632C105.556 8.208 105.444 8.864 105.444 9.6C105.444 10.32 105.556 10.976 105.78 11.568C106.02 12.16 106.34 12.672 106.74 13.104C107.156 13.52 107.636 13.84 108.18 14.064C108.74 14.288 109.34 14.4 109.98 14.4ZM121.805 18V1.2H129.485C131.021 1.2 132.341 1.448 133.445 1.944C134.565 2.44 135.429 3.16 136.037 4.104C136.645 5.032 136.949 6.136 136.949 7.416C136.949 8.68 136.645 9.776 136.037 10.704C135.429 11.616 134.565 12.32 133.445 12.816C132.341 13.296 131.021 13.536 129.485 13.536H124.445L126.557 11.544V18H121.805ZM132.197 18L128.021 11.88H133.085L137.285 18H132.197ZM126.557 12.048L124.445 9.864H129.197C130.189 9.864 130.925 9.648 131.405 9.216C131.901 8.784 132.149 8.184 132.149 7.416C132.149 6.632 131.901 6.024 131.405 5.592C130.925 5.16 130.189 4.944 129.197 4.944H124.445L126.557 2.76V12.048ZM143.939 7.704H151.739V11.256H143.939V7.704ZM144.275 14.328H153.059V18H139.571V1.2H152.747V4.872H144.275V14.328ZM161.6 18.336C160.224 18.336 158.896 18.168 157.616 17.832C156.352 17.48 155.32 17.032 154.52 16.488L156.08 12.984C156.832 13.464 157.696 13.864 158.672 14.184C159.664 14.488 160.648 14.64 161.624 14.64C162.28 14.64 162.808 14.584 163.208 14.472C163.608 14.344 163.896 14.184 164.072 13.992C164.264 13.784 164.36 13.544 164.36 13.272C164.36 12.888 164.184 12.584 163.832 12.36C163.48 12.136 163.024 11.952 162.464 11.808C161.904 11.664 161.28 11.52 160.592 11.376C159.92 11.232 159.24 11.048 158.552 10.824C157.88 10.6 157.264 10.312 156.704 9.96C156.144 9.592 155.688 9.12 155.336 8.544C154.984 7.952 154.808 7.208 154.808 6.312C154.808 5.304 155.08 4.392 155.624 3.576C156.184 2.76 157.016 2.104 158.12 1.608C159.224 1.112 160.6 0.863999 162.248 0.863999C163.352 0.863999 164.432 0.991999 165.488 1.248C166.56 1.488 167.512 1.848 168.344 2.328L166.88 5.856C166.08 5.424 165.288 5.104 164.504 4.896C163.72 4.672 162.96 4.56 162.224 4.56C161.568 4.56 161.04 4.632 160.64 4.776C160.24 4.904 159.952 5.08 159.776 5.304C159.6 5.528 159.512 5.784 159.512 6.072C159.512 6.44 159.68 6.736 160.016 6.96C160.368 7.168 160.824 7.344 161.384 7.488C161.96 7.616 162.584 7.752 163.256 7.896C163.944 8.04 164.624 8.224 165.296 8.448C165.984 8.656 166.608 8.944 167.168 9.312C167.728 9.664 168.176 10.136 168.512 10.728C168.864 11.304 169.04 12.032 169.04 12.912C169.04 13.888 168.76 14.792 168.2 15.624C167.656 16.44 166.832 17.096 165.728 17.592C164.64 18.088 163.264 18.336 161.6 18.336Z" fill="url(#paint0_linear_385_86)"/>
<defs>
<linearGradient id="paint0_linear_385_86" x1="2.5" y1="4.99999" x2="371" y2="5.5" gradientUnits="userSpaceOnUse">
<stop stop-color="#6943FF"/>
<stop offset="1" stop-color="white"/>
</linearGradient>
</defs>
</svg>
