<svg width="37" height="35" viewBox="0 0 37 35" fill="none" xmlns="http://www.w3.org/2000/svg">
<path d="M30.2215 11.3422C29.8312 11.2015 29.441 11.0687 29.0508 10.9438C29.1158 10.6547 29.1736 10.3657 29.2314 10.0766C30.1203 5.42061 29.535 1.67862 27.5621 0.444312C25.6615 -0.735313 22.5613 0.491184 19.425 3.44415C19.1143 3.7332 18.8107 4.03787 18.5217 4.34254C18.3266 4.13943 18.1242 3.93631 17.9219 3.74101C14.6338 0.584929 11.3385 -0.743125 9.36562 0.498996C7.47227 1.68643 6.90859 5.20968 7.70352 9.6157C7.78301 10.0532 7.86973 10.4828 7.9709 10.9203C7.5084 11.0609 7.05312 11.2172 6.62676 11.3812C2.76777 12.8265 0 15.1076 0 17.4668C0 19.9042 2.94844 22.3494 6.95918 23.8337C7.28437 23.9509 7.60957 24.068 7.94199 24.1696C7.83359 24.6383 7.73965 25.0992 7.65293 25.5758C6.89414 29.9115 7.48672 33.3488 9.38008 34.5284C11.3312 35.7471 14.6121 34.4972 17.8062 31.4739C18.0592 31.2317 18.3121 30.9817 18.565 30.7161C18.883 31.0521 19.2154 31.3723 19.5479 31.6848C22.6408 34.5597 25.6977 35.7237 27.5838 34.5441C29.535 33.3254 30.1709 29.6303 29.3471 25.1305C29.282 24.7868 29.2098 24.4352 29.1303 24.0759C29.3615 24.0056 29.5855 23.9274 29.8096 23.8493C33.9793 22.3572 37 19.9433 37 17.4668C37 15.0998 34.1527 12.803 30.2215 11.3422ZM20.4439 4.70971C23.1322 2.17859 25.6398 1.18646 26.7816 1.89736C28.0029 2.65513 28.4727 5.71747 27.7066 9.74069C27.6561 10.0063 27.6055 10.2641 27.5404 10.5219C25.9361 10.1313 24.3102 9.85006 22.677 9.69382C21.7375 8.24077 20.7113 6.85022 19.5984 5.5456C19.8803 5.25655 20.1549 4.98313 20.4439 4.70971ZM12.0828 21.5213C12.4514 22.201 12.8271 22.8806 13.2246 23.5446C12.0973 23.4118 10.9771 23.2165 9.87148 22.9587C10.1895 21.8338 10.5869 20.6698 11.0494 19.4824C11.3818 20.1698 11.7215 20.8495 12.0828 21.5213ZM9.89316 12.1234C10.9338 11.8734 12.0395 11.6703 13.1885 11.514C12.8055 12.1624 12.4297 12.8265 12.0756 13.4983C11.7215 14.1623 11.3746 14.842 11.0494 15.5294C10.5941 14.3654 10.2111 13.2249 9.89316 12.1234ZM11.8732 17.5059C12.3502 16.4278 12.8705 15.3732 13.4197 14.3342C13.9689 13.2952 14.5615 12.2874 15.183 11.2953C16.267 11.2094 17.3727 11.1625 18.5 11.1625C19.6273 11.1625 20.7402 11.2094 21.817 11.2953C22.4312 12.2796 23.0166 13.2874 23.573 14.3186C24.1295 15.3498 24.6498 16.4044 25.1412 17.4747C24.657 18.5527 24.1367 19.6152 23.5803 20.662C23.0311 21.701 22.4457 22.7087 21.8314 23.7087C20.7547 23.7946 19.6346 23.8337 18.5 23.8337C17.3654 23.8337 16.267 23.7946 15.2047 23.7243C14.576 22.7322 13.9834 21.7166 13.427 20.6776C12.8705 19.6386 12.3574 18.584 11.8732 17.5059ZM24.9244 21.5057C25.293 20.8182 25.6398 20.1229 25.9795 19.4199C26.442 20.5526 26.8467 21.701 27.2008 22.8806C26.0807 23.154 24.9461 23.365 23.8043 23.5056C24.1945 22.8494 24.5631 22.1775 24.9244 21.5057ZM25.965 15.5294C25.6254 14.842 25.2785 14.1545 24.9172 13.4827C24.5631 12.8187 24.1945 12.1624 23.8115 11.514C24.975 11.6703 26.0879 11.8812 27.1285 12.139C26.7961 13.2952 26.4059 14.4201 25.965 15.5294ZM18.5145 6.74085C19.2732 7.63143 19.9887 8.56888 20.6535 9.53758C19.2227 9.46727 17.7846 9.46727 16.3537 9.53758C17.0619 8.52982 17.7918 7.59237 18.5145 6.74085ZM10.1316 1.95204C11.3457 1.18646 14.0412 2.28015 16.8812 4.99876C17.0619 5.17062 17.2426 5.35811 17.4305 5.5456C16.3104 6.85022 15.277 8.24077 14.3303 9.69382C12.6971 9.85006 11.0783 10.1235 9.47402 10.5063C9.38008 10.1079 9.30059 9.70163 9.22109 9.2954C8.5418 5.51435 8.98984 2.66294 10.1316 1.95204ZM8.36113 22.5447C8.05762 22.4509 7.76133 22.3494 7.46504 22.24C5.92578 21.7166 4.17695 20.8885 2.9123 19.8027C2.18242 19.2558 1.69102 18.4121 1.55371 17.4668C1.55371 16.0372 3.8373 14.2092 7.13262 12.9671C7.54453 12.8108 7.96367 12.6702 8.38281 12.5374C8.87422 14.2326 9.4668 15.8966 10.1533 17.5059C9.45957 19.1386 8.85977 20.826 8.36113 22.5447ZM16.7873 30.2005C15.5949 31.3802 14.2146 32.3176 12.7115 32.9582C11.9094 33.3722 10.9844 33.4113 10.1605 33.0598C9.01152 32.341 8.53457 29.5834 9.18496 25.8726C9.26445 25.4352 9.35117 24.9977 9.45234 24.568C11.0711 24.943 12.7043 25.2008 14.3592 25.3336C15.3131 26.7945 16.3609 28.1928 17.4811 29.5053C17.2498 29.7474 17.0186 29.9818 16.7873 30.2005ZM18.5578 28.3022C17.8207 27.4429 17.0836 26.4898 16.3682 25.4664C17.0619 25.4977 17.7773 25.5133 18.5 25.5133C19.2443 25.5133 19.9742 25.4977 20.6969 25.4586C20.032 26.4507 19.3166 27.396 18.5578 28.3022ZM28.0029 30.6458C27.9379 31.5989 27.5043 32.4895 26.8105 33.091C25.6615 33.8097 23.2117 32.8723 20.5668 30.4193C20.2633 30.138 19.9598 29.8334 19.649 29.5209C20.7547 28.2006 21.7736 26.8023 22.6986 25.3336C24.3535 25.1852 26.0012 24.9118 27.6271 24.5133C27.6994 24.8336 27.7645 25.1539 27.8223 25.4664C28.1764 27.1538 28.2342 28.9115 28.0029 30.6458ZM29.3182 22.2478C29.1158 22.3181 28.9135 22.3885 28.7039 22.4509C28.198 20.7479 27.5766 19.0839 26.8611 17.4668C27.5549 15.8732 28.1402 14.2326 28.6316 12.553C29.0074 12.6702 29.3687 12.7952 29.7156 12.9202C33.0832 14.1701 35.4463 16.0294 35.4463 17.4512C35.4463 18.9824 32.9242 20.9588 29.3182 22.2478ZM18.5 21.076C20.3283 21.076 21.8098 19.4745 21.8098 17.4981C21.8098 15.5216 20.3283 13.9202 18.5 13.9202C16.6717 13.9202 15.1902 15.5216 15.1902 17.4981C15.1902 19.4745 16.6717 21.076 18.5 21.076Z" fill="white"/>
</svg>
