<svg width="25" height="25" viewBox="0 0 25 25" fill="none" xmlns="http://www.w3.org/2000/svg">
<path d="M16.6504 8.33496C17.7557 8.33496 18.8157 7.89589 19.5972 7.11433C20.3788 6.33278 20.8179 5.27276 20.8179 4.16748C20.8179 3.0622 20.3788 2.00218 19.5972 1.22063C18.8157 0.439073 17.7557 0 16.6504 0L8.31543 0C7.21079 0 6.1514 0.438815 5.3703 1.21991C4.58921 2.00101 4.15039 3.0604 4.15039 4.16504C4.15039 5.26968 4.58921 6.32907 5.3703 7.11017C6.1514 7.89126 7.21079 8.33008 8.31543 8.33008C7.21015 8.33008 6.15013 8.76915 5.36858 9.5507C4.58702 10.3323 4.14795 11.3923 4.14795 12.4976C4.14795 13.6028 4.58702 14.6629 5.36858 15.4444C6.15013 16.226 7.21015 16.665 8.31543 16.665C7.49118 16.6646 6.6853 16.9085 5.99969 17.366C5.31409 17.8236 4.77955 18.4741 4.46368 19.2354C4.1478 19.9968 4.06478 20.8347 4.22511 21.6432C4.38544 22.4517 4.78192 23.1945 5.36441 23.7776C5.9469 24.3608 6.68924 24.7582 7.49756 24.9194C8.30588 25.0807 9.14387 24.9987 9.90556 24.6837C10.6673 24.3687 11.3184 23.8349 11.7768 23.1499C12.2351 22.4648 12.48 21.6592 12.4805 20.835V8.33496H16.6504ZM16.6504 8.33496C15.8266 8.33496 15.0214 8.57924 14.3364 9.0369C13.6515 9.49456 13.1176 10.145 12.8024 10.9061C12.4872 11.6672 12.4047 12.5046 12.5654 13.3126C12.7261 14.1205 13.1228 14.8626 13.7053 15.4451C14.2878 16.0276 15.0299 16.4243 15.8378 16.585C16.6458 16.7457 17.4832 16.6632 18.2443 16.348C19.0053 16.0328 19.6558 15.4989 20.1135 14.814C20.5712 14.129 20.8154 13.3238 20.8154 12.5C20.8153 11.3954 20.3764 10.3361 19.5954 9.55502C18.8143 8.77395 17.755 8.33509 16.6504 8.33496Z" fill="white"/>
</svg>
