<svg width="25" height="25" viewBox="0 0 25 25" fill="none" xmlns="http://www.w3.org/2000/svg">
<path d="M23.026 7.86771C22.7927 8.33437 22.4812 8.62083 22.0739 8.74062C21.4343 8.93125 20.675 8.68646 20.3187 8.47708C19.8489 8.20104 19.3041 7.78229 18.7281 7.33958C16.8896 5.925 14.6021 4.16667 11.4583 4.16667C8.94372 4.16667 7.65205 5.45729 5.51351 7.59687L6.97913 9.07708C7.54788 8.63437 11.1781 9.06146 12.7625 10.3208C15.1156 12.1906 16.8146 13.5417 18.75 13.5417C21.5198 13.5417 23.8323 11.7281 24.9375 8.68958L23.026 7.86771ZM16.8666 16.0323C16.2281 16.2198 15.4677 15.9781 15.1114 15.7687C14.6416 15.4927 14.0968 15.074 13.5208 14.6312C11.6812 13.2167 9.39372 11.4583 6.24997 11.4583C3.73538 11.4583 2.44372 12.749 0.305176 14.8885L1.7708 16.3687C2.33851 15.924 5.9708 16.3542 7.55413 17.6125C9.90726 19.4823 11.6062 20.8333 13.5416 20.8333C16.3114 20.8333 18.6239 19.0198 19.7291 15.9812L17.8187 15.1594C17.5843 15.626 17.2739 15.9115 16.8666 16.0323Z" fill="white"/>
</svg>
